<?xml version="1.0" encoding="UTF-8"?>
<!DOCTYPE svg PUBLIC "-//W3C//DTD SVG 1.1//EN" "http://www.w3.org/Graphics/SVG/1.1/DTD/svg11.dtd">
<svg xmlns="http://www.w3.org/2000/svg" xmlns:xlink="http://www.w3.org/1999/xlink" version="1.1" width="420px" height="262px" viewBox="-0.5 -0.5 420 262"><defs/><g><g><ellipse cx="336.1" cy="90.78" rx="58.61" ry="59.4275" fill="rgb(255, 255, 255)" stroke="rgb(0, 0, 0)" stroke-width="0.5" transform="rotate(135,336.1,90.78)" pointer-events="all"/></g><g><ellipse cx="249.98" cy="186.88" rx="70" ry="57.5" fill="rgb(255, 255, 255)" stroke="rgb(0, 0, 0)" stroke-width="0.5" transform="rotate(15,249.98,186.88)" pointer-events="all"/></g><g><ellipse cx="107.32" cy="115.52" rx="93.1275" ry="69.8425" fill="rgb(255, 255, 255)" stroke="rgb(0, 0, 0)" stroke-width="0.5" transform="rotate(-60,107.32,115.52)" pointer-events="all"/></g><g><ellipse cx="74.5" cy="93" rx="20" ry="20" fill="#cce5ff" stroke="rgb(0, 0, 0)" stroke-width="0.5" pointer-events="all"/></g><g><ellipse cx="129.5" cy="53" rx="20" ry="20" fill="#cce5ff" stroke="rgb(0, 0, 0)" stroke-width="0.5" pointer-events="all"/></g><g><ellipse cx="149.5" cy="113" rx="20" ry="20" fill="#cce5ff" stroke="rgb(0, 0, 0)" stroke-width="0.5" pointer-events="all"/></g><g><ellipse cx="114.5" cy="168" rx="20" ry="20" fill="#cce5ff" stroke="rgb(0, 0, 0)" stroke-width="0.5" pointer-events="all"/></g><g><ellipse cx="209.5" cy="198" rx="20" ry="20" fill="#d5e8d4" stroke="rgb(0, 0, 0)" stroke-width="0.5" pointer-events="all"/></g><g><ellipse cx="54.5" cy="148" rx="20" ry="20" fill="#cce5ff" stroke="rgb(0, 0, 0)" stroke-width="0.5" pointer-events="all"/></g><g><path d="M 240.36 167.14 L 234.5 173 L 223.64 183.86" fill="none" stroke="rgb(0, 0, 0)" stroke-width="2" stroke-miterlimit="10" pointer-events="stroke"/></g><g><path d="M 268.64 167.14 L 278.05 194.07" fill="none" stroke="rgb(0, 0, 0)" stroke-width="2" stroke-miterlimit="10" pointer-events="stroke"/></g><g><ellipse cx="254.5" cy="153" rx="20" ry="20" fill="#d5e8d4" stroke="rgb(0, 0, 0)" stroke-width="0.5" pointer-events="all"/></g><g><ellipse cx="284.5" cy="213" rx="20" ry="20" fill="#d5e8d4" stroke="rgb(0, 0, 0)" stroke-width="0.5" pointer-events="all"/></g><g><ellipse cx="324.5" cy="57.38" rx="20" ry="20" fill="#f19c99" stroke="rgb(0, 0, 0)" stroke-width="0.5" pointer-events="all"/></g><g><ellipse cx="364.5" cy="108" rx="20" ry="20" fill="#f19c99" stroke="rgb(0, 0, 0)" stroke-width="0.5" pointer-events="all"/></g><g><ellipse cx="304.5" cy="108" rx="20" ry="20" fill="#f19c99" stroke="rgb(0, 0, 0)" stroke-width="0.5" pointer-events="all"/></g><g><path d="M 264.5 213 L 227.02 205.52" fill="none" stroke="rgb(0, 0, 0)" stroke-width="2" stroke-miterlimit="10" pointer-events="stroke"/></g><g><path d="M 290.36 122.14 L 268.64 138.86" fill="none" stroke="rgb(0, 0, 0)" stroke-width="0.5" stroke-miterlimit="10" pointer-events="stroke"/></g><g><path d="M 310.36 71.52 L 304.5 88" fill="none" stroke="rgb(0, 0, 0)" stroke-width="2" stroke-miterlimit="10" pointer-events="stroke"/></g><g><path d="M 344.5 108 L 324.5 108" fill="none" stroke="rgb(0, 0, 0)" stroke-width="2" stroke-miterlimit="10" pointer-events="stroke"/></g><g><path d="M 350.36 93.86 L 338.64 71.52" fill="none" stroke="rgb(0, 0, 0)" stroke-width="2" stroke-miterlimit="10" pointer-events="stroke"/></g><g><path d="M 140.5 130 L 128.64 153.86" fill="none" stroke="rgb(0, 0, 0)" stroke-width="2" stroke-miterlimit="10" pointer-events="stroke"/></g><g><path d="M 143.64 67.14 L 149.5 93" fill="none" stroke="rgb(0, 0, 0)" stroke-width="2" stroke-miterlimit="10" pointer-events="stroke"/></g><g><path d="M 88.64 107.14 L 100.36 153.86" fill="none" stroke="rgb(0, 0, 0)" stroke-width="2" stroke-miterlimit="10" pointer-events="stroke"/></g><g><path d="M 68.64 162.14 L 94.5 168" fill="none" stroke="rgb(0, 0, 0)" stroke-width="2" stroke-miterlimit="10" pointer-events="stroke"/></g><g><path d="M 54.5 128 L 60.36 107.14" fill="none" stroke="rgb(0, 0, 0)" stroke-width="2" stroke-miterlimit="10" pointer-events="stroke"/></g><g><path d="M 88.64 78.86 L 111.02 59.52" fill="none" stroke="rgb(0, 0, 0)" stroke-width="2" stroke-miterlimit="10" pointer-events="stroke"/></g><g><path d="M 94.5 93 L 130.5 109.52" fill="none" stroke="rgb(0, 0, 0)" stroke-width="2" stroke-miterlimit="10" pointer-events="stroke"/></g><g><path d="M 195.36 183.86 L 163.64 127.14" fill="none" stroke="rgb(0, 0, 0)" stroke-width="0.5" stroke-miterlimit="10" pointer-events="stroke"/></g><g><path d="M 163.64 127.14 L 235.5 147" fill="none" stroke="rgb(0, 0, 0)" stroke-width="0.5" stroke-miterlimit="10" pointer-events="stroke"/></g><g><path d="M 220.36 36.89 L 220.37 37.07 L 220.3 37.23 L 220.15 37.34 L 219.98 37.37 L 219.81 37.32 L 219.68 37.19 L 219.63 37.02 L 219.66 36.85 L 219.77 36.7 L 219.93 36.63 L 220.11 36.64 L 220.27 36.73" fill="rgb(0, 0, 0)" stroke="rgb(0, 0, 0)" stroke-width="0.5" stroke-miterlimit="10" pointer-events="all"/></g></g></svg>